<svg width="720" height="900" viewBox="0 0 720 900" fill="none" xmlns="http://www.w3.org/2000/svg">
<g clip-path="url(#clip0_2051_5941)">
<rect width="720" height="900" fill="#F8FAFC"/>
<rect width="720" height="900" fill="url(#paint0_linear_2051_5941)"/>
<g opacity="0.5">
<path d="M510.377 808.862H538.611V890.471H489.745C415.903 890.471 390.927 858.916 389.841 804.51C355.092 854.563 299.711 897 204.151 897C82.5291 897 0 836.065 0 734.87C0 623.881 77.0995 561.858 222.611 561.858H385.498V523.774C385.498 451.958 334.46 408.433 247.587 408.433C169.402 408.433 117.278 445.429 106.419 502.011H17.3745C30.4055 393.199 118.364 329 251.931 329C393.099 329 474.542 399.728 474.542 529.215V771.866C474.542 801.245 485.401 808.862 510.377 808.862ZM385.498 664.142V636.939H213.924C134.653 636.939 90.1304 666.318 90.1304 729.429C90.1304 783.835 136.825 820.831 210.666 820.831C321.429 820.831 385.498 756.632 385.498 664.142Z" fill="url(#paint1_linear_2051_5941)"/>
<path d="M596.206 836.065C596.206 799.069 622.268 775.13 658.103 775.13C693.938 775.13 720 799.069 720 836.065C720 873.061 693.938 897 658.103 897C622.268 897 596.206 873.061 596.206 836.065Z" fill="url(#paint2_linear_2051_5941)"/>
</g>
<g opacity="0.5">
<path d="M510.377 808.862H538.611V890.471H489.745C415.903 890.471 390.927 858.916 389.841 804.51C355.092 854.563 299.711 897 204.151 897C82.5291 897 0 836.065 0 734.87C0 623.881 77.0995 561.858 222.611 561.858H385.498V523.774C385.498 451.958 334.46 408.433 247.587 408.433C169.402 408.433 117.278 445.429 106.419 502.011H17.3745C30.4055 393.199 118.364 329 251.931 329C393.099 329 474.542 399.728 474.542 529.215V771.866C474.542 801.245 485.401 808.862 510.377 808.862ZM385.498 664.142V636.939H213.924C134.653 636.939 90.1304 666.318 90.1304 729.429C90.1304 783.835 136.825 820.831 210.666 820.831C321.429 820.831 385.498 756.632 385.498 664.142Z" fill="url(#paint3_linear_2051_5941)"/>
<path d="M596.206 836.065C596.206 799.069 622.268 775.13 658.103 775.13C693.938 775.13 720 799.069 720 836.065C720 873.061 693.938 897 658.103 897C622.268 897 596.206 873.061 596.206 836.065Z" fill="url(#paint4_linear_2051_5941)"/>
</g>
</g>
<defs>
<linearGradient id="paint0_linear_2051_5941" x1="701.667" y1="0.000102809" x2="-463.776" y2="478.359" gradientUnits="userSpaceOnUse">
<stop offset="0.374962" stop-color="#031D8C"/>
<stop offset="1" stop-color="#0F1053"/>
</linearGradient>
<linearGradient id="paint1_linear_2051_5941" x1="186.429" y1="964.743" x2="497.176" y2="344.444" gradientUnits="userSpaceOnUse">
<stop stop-color="#A6D8FD"/>
<stop offset="0.37" stop-color="#1A2BC3"/>
<stop offset="1" stop-color="#031D8C"/>
</linearGradient>
<linearGradient id="paint2_linear_2051_5941" x1="186.429" y1="964.743" x2="497.176" y2="344.444" gradientUnits="userSpaceOnUse">
<stop stop-color="#A6D8FD"/>
<stop offset="0.37" stop-color="#1A2BC3"/>
<stop offset="1" stop-color="#031D8C"/>
</linearGradient>
<linearGradient id="paint3_linear_2051_5941" x1="186.429" y1="964.743" x2="497.176" y2="344.444" gradientUnits="userSpaceOnUse">
<stop stop-color="#A6D8FD"/>
<stop offset="0.37" stop-color="#1A2BC3"/>
<stop offset="1" stop-color="#031D8C"/>
</linearGradient>
<linearGradient id="paint4_linear_2051_5941" x1="186.429" y1="964.743" x2="497.176" y2="344.444" gradientUnits="userSpaceOnUse">
<stop stop-color="#A6D8FD"/>
<stop offset="0.37" stop-color="#1A2BC3"/>
<stop offset="1" stop-color="#031D8C"/>
</linearGradient>
<clipPath id="clip0_2051_5941">
<rect width="720" height="900" fill="white"/>
</clipPath>
</defs>
</svg>
